<?xml version="1.0" encoding="UTF-8" standalone="no"?>
<svg
   xmlns:dc="http://purl.org/dc/elements/1.1/"
   xmlns:cc="http://creativecommons.org/ns#"
   xmlns:rdf="http://www.w3.org/1999/02/22-rdf-syntax-ns#"
   xmlns:svg="http://www.w3.org/2000/svg"
   xmlns="http://www.w3.org/2000/svg"
   xmlns:xlink="http://www.w3.org/1999/xlink"
   xmlns:sodipodi="http://sodipodi.sourceforge.net/DTD/sodipodi-0.dtd"
   xmlns:inkscape="http://www.inkscape.org/namespaces/inkscape"
   width="690"
   height="95"
   viewBox="0 0 182.56249 25.135417"
   version="1.1"
   id="svg8"
   inkscape:version="1.0.1 (3bc2e813f5, 2020-09-07)"
   sodipodi:docname="OtherOutdoor_690x95_1.svg">
  <defs
     id="defs2">
    <linearGradient
       inkscape:collect="always"
       xlink:href="#linearGradient843"
       id="linearGradient845"
       x1="136.00011"
       y1="-25.284777"
       x2="136.26469"
       y2="28.91213"
       gradientUnits="userSpaceOnUse"
       gradientTransform="translate(0.17442557,0.27977178)" />
    <linearGradient
       inkscape:collect="always"
       id="linearGradient843">
      <stop
         style="stop-color:#008bff;stop-opacity:1"
         offset="0"
         id="stop839" />
      <stop
         style="stop-color:#00ffff;stop-opacity:0;"
         offset="1"
         id="stop841" />
    </linearGradient>
  </defs>
  <sodipodi:namedview
     id="base"
     pagecolor="#ffffff"
     bordercolor="#666666"
     borderopacity="1.0"
     inkscape:pageopacity="0.0"
     inkscape:pageshadow="2"
     inkscape:zoom="0.87681241"
     inkscape:cx="613.51114"
     inkscape:cy="-251.32953"
     inkscape:document-units="px"
     inkscape:current-layer="layer7"
     inkscape:document-rotation="0"
     showgrid="false"
     units="px"
     borderlayer="true"
     inkscape:window-width="1920"
     inkscape:window-height="1017"
     inkscape:window-x="-8"
     inkscape:window-y="-8"
     inkscape:window-maximized="1"
     inkscape:snap-nodes="false" />
  <metadata
     id="metadata5">
    <rdf:RDF>
      <cc:Work
         rdf:about="">
        <dc:format>image/svg+xml</dc:format>
        <dc:type
           rdf:resource="http://purl.org/dc/dcmitype/StillImage" />
        <dc:title></dc:title>
      </cc:Work>
    </rdf:RDF>
  </metadata>
  <g
     inkscape:label="background"
     inkscape:groupmode="layer"
     id="layer1">
    <rect
       style="fill:url(#linearGradient845);fill-opacity:1;stroke:#00ffff;stroke-width:0.264583"
       id="rect14"
       width="333.28964"
       height="27.098454"
       x="-0.67906767"
       y="-0.57372195" />
  </g>
  <g
     inkscape:groupmode="layer"
     id="layer8"
     inkscape:label="back hill">
    <path
       style="fill:#ff6600;fill-opacity:1;stroke:#000000;stroke-width:0.255712px;stroke-linecap:butt;stroke-linejoin:miter;stroke-opacity:1"
       d="m -7.6995447,16.565939 10.02819,-1.959196 11.0917857,-3.21868 8.356825,0.279885 10.332074,2.658909 13.37092,-0.419828 12.459266,-2.239081 9.420421,-0.279885 3.038846,-2.5189666 5.014094,-2.2390822 4.254384,-1.3994261 2.583017,0.5597705 5.925749,2.9387946 -0.151943,2.3790238 3.646615,1.679311 4.102446,1.259484 7.293235,1.539369 h 27.04571 l 17.9292,-1.959197 20.66415,-2.798852 13.06703,1.119541 20.05638,-1.399426 12.76315,-1.3994256 26.74184,-1.3994262 20.96802,0.5597703 18.84085,-2.7988521 13.37093,-2.7988522 15.80199,1.6793114 8.20489,0.8396555 4.55826,3.0787374 3.6466,3.9183925 7.90102,4.478163 3.6466,16.793113 -344.6050641,-0.839655 z"
       id="path4548" />
  </g>
  <g
     inkscape:groupmode="layer"
     id="layer9"
     inkscape:label="font hill">
    <path
       style="fill:#fd8534;fill-opacity:1;stroke:none;stroke-width:0.264583px;stroke-linecap:butt;stroke-linejoin:miter;stroke-opacity:1"
       d="m -2.7158032,20.519402 19.6141342,-3.319315 15.993063,2.414048 14.786041,1.810535 12.070235,-3.017559 12.070236,2.715803 35.305444,1.810535 44.05636,-2.112291 22.02818,-0.603512 28.96857,-0.905267 27.76155,-3.621071 25.34749,-1.207024 19.01063,4.526339 22.02818,-0.603512 12.67375,-1.207024 c 0,0 8.44915,-3.017559 9.35442,-1.810535 0.90528,1.207023 7.84567,2.112291 7.84567,2.112291 l 8.14739,5.129851 v 6.336873 L -3.6210711,28.666813 Z"
       id="path4579" />
  </g>
  <g
     inkscape:groupmode="layer"
     id="layer7"
     inkscape:label="bike">
    <g
       id="g3985"
       style="stroke:#000000;stroke-width:1.13242;stroke-linecap:round;stroke-linejoin:round;stroke-miterlimit:4;stroke-dasharray:none;stroke-opacity:1"
       transform="translate(15.691307,40.133536)">
      <ellipse
         style="fill:none;stroke:#000000;stroke-width:1.13242;stroke-linecap:round;stroke-linejoin:round;stroke-miterlimit:4;stroke-dasharray:none;stroke-opacity:1"
         id="path3949"
         cx="19.312378"
         cy="-23.536961"
         rx="6.0351186"
         ry="5.7333622" />
      <ellipse
         style="fill:none;stroke:#000000;stroke-width:1.13242;stroke-linecap:round;stroke-linejoin:round;stroke-miterlimit:4;stroke-dasharray:none;stroke-opacity:1"
         id="path3949-8"
         cx="38.323002"
         cy="-24.140472"
         rx="6.0351181"
         ry="5.7333622" />
      <path
         style="fill:none;stroke:#000000;stroke-width:1.13242;stroke-linecap:round;stroke-linejoin:round;stroke-miterlimit:4;stroke-dasharray:none;stroke-opacity:1"
         d="m 38.323001,-24.140473 h -9.052676 l -7.242143,-7.242142 9.656188,-0.301755 z"
         id="path3966" />
      <path
         style="fill:none;stroke:#000000;stroke-width:1.13242;stroke-linecap:round;stroke-linejoin:round;stroke-miterlimit:4;stroke-dasharray:none;stroke-opacity:1"
         d="M 29.270325,-24.140473 31.68437,-31.68437"
         id="path3968" />
      <path
         style="fill:none;stroke:#000000;stroke-width:1.13242;stroke-linecap:round;stroke-linejoin:round;stroke-miterlimit:4;stroke-dasharray:none;stroke-opacity:1"
         d="m 22.028182,-31.382615 -2.715803,6.940386"
         id="path3970" />
      <path
         style="fill:none;stroke:#000000;stroke-width:1.13242;stroke-linecap:round;stroke-linejoin:round;stroke-miterlimit:4;stroke-dasharray:none;stroke-opacity:1"
         d="m 22.028182,-31.382615 v 0 0 l 0.754389,-1.810535 -1.131584,-0.980707 -3.168437,2.791242 5.582484,-4.903534"
         id="path3972" />
      <path
         style="fill:none;stroke:#000000;stroke-width:1.13242;stroke-linecap:round;stroke-linejoin:round;stroke-miterlimit:4;stroke-dasharray:none;stroke-opacity:1"
         d="m 31.68437,-31.68437 0.75439,-2.036852 1.810536,-0.150879 1.282462,-0.07544 0.905269,-0.829829 -0.226316,-0.528071 -0.90527,-0.377196 -1.735095,0.528072 -2.414048,0.226319 -0.905269,0.07544 -0.528071,0.67895 0.150879,0.603512 0.452633,0.150879 2.338607,-0.528074"
         id="path3976" />
    </g>
  </g>
</svg>
